subject01_walk1_states
version=1
nRows=4
nColumns=155
inDegrees=yes

# SIMM Motion File Header:
name subject01_walk1_states
datacolumns 155
datarows 4
otherdata 1
range 1.02010481606510720000 1.02404359423696210000
endheader
time	pelvis_tilt	pelvis_list	pelvis_rotation	pelvis_tx	pelvis_ty	pelvis_tz	hip_flexion_r	hip_adduction_r	hip_rotation_r	knee_angle_r	ankle_angle_r	subtalar_angle_r	mtp_angle_r	hip_flexion_l	hip_adduction_l	hip_rotation_l	knee_angle_l	ankle_angle_l	subtalar_angle_l	mtp_angle_l	lumbar_extension	lumbar_bending	lumbar_rotation	pelvis_tilt_u	pelvis_list_u	pelvis_rotation_u	pelvis_tx_u	pelvis_ty_u	pelvis_tz_u	hip_flexion_r_u	hip_adduction_r_u	hip_rotation_r_u	knee_angle_r_u	ankle_angle_r_u	subtalar_angle_r_u	mtp_angle_r_u	hip_flexion_l_u	hip_adduction_l_u	hip_rotation_l_u	knee_angle_l_u	ankle_angle_l_u	subtalar_angle_l_u	mtp_angle_l_u	lumbar_extension_u	lumbar_bending_u	lumbar_rotation_u	glut_med1_r.activation	glut_med1_r.fiber_length	glut_med2_r.activation	glut_med2_r.fiber_length	glut_med3_r.activation	glut_med3_r.fiber_length	bifemlh_r.activation	bifemlh_r.fiber_length	bifemsh_r.activation	bifemsh_r.fiber_length	sar_r.activation	sar_r.fiber_length	add_mag2_r.activation	add_mag2_r.fiber_length	tfl_r.activation	tfl_r.fiber_length	pect_r.activation	pect_r.fiber_length	grac_r.activation	grac_r.fiber_length	glut_max1_r.activation	glut_max1_r.fiber_length	glut_max2_r.activation	glut_max2_r.fiber_length	glut_max3_r.activation	glut_max3_r.fiber_length	iliacus_r.activation	iliacus_r.fiber_length	psoas_r.activation	psoas_r.fiber_length	quad_fem_r.activation	quad_fem_r.fiber_length	gem_r.activation	gem_r.fiber_length	peri_r.activation	peri_r.fiber_length	rect_fem_r.activation	rect_fem_r.fiber_length	vas_int_r.activation	vas_int_r.fiber_length	med_gas_r.activation	med_gas_r.fiber_length	soleus_r.activation	soleus_r.fiber_length	tib_post_r.activation	tib_post_r.fiber_length	tib_ant_r.activation	tib_ant_r.fiber_length	glut_med1_l.activation	glut_med1_l.fiber_length	glut_med2_l.activation	glut_med2_l.fiber_length	glut_med3_l.activation	glut_med3_l.fiber_length	bifemlh_l.activation	bifemlh_l.fiber_length	bifemsh_l.activation	bifemsh_l.fiber_length	sar_l.activation	sar_l.fiber_length	add_mag2_l.activation	add_mag2_l.fiber_length	tfl_l.activation	tfl_l.fiber_length	pect_l.activation	pect_l.fiber_length	grac_l.activation	grac_l.fiber_length	glut_max1_l.activation	glut_max1_l.fiber_length	glut_max2_l.activation	glut_max2_l.fiber_length	glut_max3_l.activation	glut_max3_l.fiber_length	iliacus_l.activation	iliacus_l.fiber_length	psoas_l.activation	psoas_l.fiber_length	quad_fem_l.activation	quad_fem_l.fiber_length	gem_l.activation	gem_l.fiber_length	peri_l.activation	peri_l.fiber_length	rect_fem_l.activation	rect_fem_l.fiber_length	vas_int_l.activation	vas_int_l.fiber_length	med_gas_l.activation	med_gas_l.fiber_length	soleus_l.activation	soleus_l.fiber_length	tib_post_l.activation	tib_post_l.fiber_length	tib_ant_l.activation	tib_ant_l.fiber_length	ercspn_r.activation	ercspn_r.fiber_length	ercspn_l.activation	ercspn_l.fiber_length	intobl_r.activation	intobl_r.fiber_length	intobl_l.activation	intobl_l.fiber_length	extobl_r.activation	extobl_r.fiber_length	extobl_l.activation	extobl_l.fiber_length
      1.02010481606510720000	      4.65545554597748890000	      0.40147040745096901000	      0.33162877404753266000	      0.59040153815961671000	      1.04645678837019540000	      0.04917971602138439300	     -4.57329275865966430000	      1.77116880789134990000	     -3.86537170045472280000	     -9.56731761290265940000	      7.79723517362673310000	      0.07436597081129744900	     -0.33218990293416956000	     19.69039686215181800000	     -2.55925227076146330000	     -5.05415546182216870000	    -51.73758378896550200000	      0.80266093239884362000	      0.02248796630122771500	      0.35044392131090679000	    -18.99385527764231400000	      0.74475658143191181000	      1.41610281893697660000	      0.30504938312619229000	     -9.54698078829019540000	    -14.05846722990167700000	     -0.12186339600467246000	     -0.00999123562254725790	      0.06611971963936191800	    -85.00760726059074600000	     13.89883547933959700000	      6.38285586229964610000	     45.85936213934989100000	     13.02176422427578300000	      3.10429618083765750000	      3.85376390075807330000	     31.08006196094865100000	    -13.37801277109446300000	    -46.54140755664902000000	    285.64503941305793000000	    -12.92750412954577400000	      0.29517158581178821000	     -0.61512468485184679000	     -8.13470777940285570000	      0.12785474123735813000	     19.65548071138909600000	      0.41514883359646637000	      0.04629358509245490300	      0.31956463969892140000	      0.08014613493564934400	      0.27989706358695182000	      0.05998929296357432400	      0.06726248639287671400	      0.09440080097867448200	      0.16756468663709562000	      0.18444260041120319000	      0.04881693844113575000	      0.52106276499267035000	      0.01999999999999999700	      0.08027749410669347800	      0.06553497413737120700	      0.12414451273131004000	      0.01999999999999999700	      0.07976651902616949100	      0.01999999999999999700	      0.34861040132131399000	      0.07808342319995777200	      0.07541050454081643700	      0.06279748182179578600	      0.08265315323861267800	      0.02350054462948108700	      0.08868233004113174100	      0.04010827688212725800	      0.11657540972168148000	      0.05514511643903200600	      0.10851091119588011000	      0.01999999999999999700	      0.04511222361910299800	      0.02040215253680894100	      0.02472796097400842300	      0.08578211631690629800	      0.01943817073113588200	      0.03739329863804058400	      0.12383711273106625000	      0.04508218240543641200	      0.08432157832933288900	      0.43469809912340046000	      0.08883491064890083900	      0.08433126186753295300	      0.04980514182736629800	      0.13469723241654286000	      0.03314882210400319600	      0.08477986183696237200	      0.07308616186922924100	      0.04569207288959089400	      0.05116656962764963600	      0.09361243960681973900	      0.08854783966677531900	      0.18793214380202058000	      0.06878987596035855700	      0.02302961806401315400	      0.09752382368646629600	      0.05978756170103564200	      0.16457297638103366000	      0.10736446222913680000	      0.48856558305063308000	      0.02656425544257999500	      0.09479946713232385900	      0.14642052682718970000	      0.11260939502437543000	      0.03430760863954598200	      0.07234810333488093900	      0.02823312497934084600	      0.33333453551920611000	      0.01999999999999999700	      0.09448238607909507900	      0.01999999999999999700	      0.10624580925065669000	      0.01999999999999999700	      0.12439947741103882000	      0.19464365254795266000	      0.09861208760205512900	      0.21272186893912837000	      0.09054124338554843400	      0.04613563317127723800	      0.04739765278077042600	      0.05293208287072397000	      0.02435147679516904200	      0.06234677115746468900	      0.02223415243848409300	      0.29974534362039978000	      0.13848396278531896000	      0.01999999999999999700	      0.11809581498693249000	      0.01999999999999999700	      0.07211372099048914100	      0.01999999999999999700	      0.04628923710345840500	      0.01999999999999999700	      0.03391133249633288000	      0.06259726904584377000	      0.07815471731633023800	      0.13617388454952079000	      0.13943555742146788000	      0.21825420517077135000	      0.14089308673530504000	      0.01999999999999999700	      0.08631223548410495200	      0.07614345051141219200	      0.08660385140326647100	      0.01999999999999999700	      0.11371002704583685000	      0.02213415688055999200	      0.11742973455053361000
      1.02052290569509370000	      4.65558422803359040000	      0.39744218180936874000	      0.32576295440570108000	      0.59035060102650883000	      1.04645248118188490000	      0.04920731194820659300	     -4.60883637185492030000	      1.77701187018443040000	     -3.86269665895507910000	     -9.54814925592648760000	      7.80274567160634460000	      0.07564109888862494100	     -0.33079643467845227000	     19.70329763058686400000	     -2.56490087325206950000	     -5.07368415327494660000	    -51.61795916269441200000	      0.79716982970089223000	      0.02258451314659427500	      0.35028823593056485000	    -18.99725525041024100000	      0.74485111643941182000	      1.42430997857030510000	      0.31103436880703866000	     -9.72190851159370520000	    -14.00178660109171400000	     -0.12180199466096359000	     -0.01061216024524508200	      0.06588950459785489200	    -85.02201585111386400000	     14.05143008634381600000	      6.41349380123388180000	     45.83604308180488100000	     13.34441722161464700000	      2.99881117571415160000	      2.79420548058982820000	     30.63210880174474600000	    -13.64162632145477800000	    -46.87674197932771100000	    286.59893296885070000000	    -13.33760932934633400000	      0.16861462719702097000	     -0.13834525789117100000	     -8.13014434780850340000	      0.32351014870869027000	     19.60468347095209700000	      0.41417263085378064000	      0.04628503522268001500	      0.31869181124297508000	      0.08013331984078828100	      0.27896983100034756000	      0.05997700754690714300	      0.06910866437866897100	      0.09436706974695906200	      0.16707806961814056000	      0.18444874555938875000	      0.04872534495244872800	      0.52109321026213995000	      0.01999999999999999700	      0.08026424211733787500	      0.06526366538560070300	      0.12417081630467333000	      0.01999999999999999700	      0.07977844847654097500	      0.01999999999999999700	      0.34861649136891504000	      0.07776153345603681300	      0.07538340892903225300	      0.06254496719297772400	      0.08261866219116927000	      0.02348101579965961700	      0.08862992190016628900	      0.04013719231738719500	      0.11659895096272128000	      0.05517918499900016000	      0.10853200290140810000	      0.01999999999999999700	      0.04511619687913973700	      0.02039992838205221700	      0.02472973003261697700	      0.08564471532577405700	      0.01943472401261504100	      0.03729250898681332100	      0.12385180804241319000	      0.04493384104142606600	      0.08430813249097313100	      0.43780708039050242000	      0.08884580442411406400	      0.08391158848929519700	      0.04980772326948069300	      0.13385941896974402000	      0.03314966531484386800	      0.08554049201214727900	      0.07308539456820761800	      0.04555172624675879500	      0.05117995526420855000	      0.09401242876022925000	      0.08855315757328151300	      0.18913268087850765000	      0.06878858461236904400	      0.02301273861957477800	      0.09760150163080332000	      0.05971926876273504100	      0.16463182105813826000	      0.10729068477835066000	      0.48857069325972280000	      0.02652732214115203700	      0.09481343918684577400	      0.14600686372389185000	      0.11257428062788347000	      0.03422538587540553000	      0.07234645842748598000	      0.02818658831687328300	      0.33341811140660571000	      0.01999999999999999700	      0.09448933565283547400	      0.01999999999999999700	      0.10625395785341619000	      0.01999999999999999700	      0.12441493767792607000	      0.19456786653172398000	      0.09860401101519460100	      0.21315495311217617000	      0.09053249408149025000	      0.04599249264919857300	      0.04738656340900575900	      0.05311143373004461500	      0.02433901594692599100	      0.06723836389512509400	      0.02223416986423022700	      0.30039858726237928000	      0.13837623326423978000	      0.01999999999999999700	      0.11800967571730724000	      0.01999999999999999700	      0.07214904690430620800	      0.01999999999999999700	      0.04628943158176319200	      0.01999999999999999700	      0.03391181840983761200	      0.06233375123693665100	      0.07815997818372055800	      0.13686376668722966000	      0.13943598509091112000	      0.21794271602530443000	      0.14089692380933114000	      0.01999999999999999700	      0.08631667087434953500	      0.07578432552981999300	      0.08659500262952012100	      0.01999999999999999700	      0.11369861913961009000	      0.02212229618854904100	      0.11743037241304743000
      1.02261335384502680000	      4.65628797315972950000	      0.37623344844112139000	      0.29677861107041109000	      0.59009634334354399000	      1.04642708341553830000	      0.04934382810671978500	     -4.78669356890082210000	      1.80714683366689140000	     -3.84912185146967860000	     -9.45241748164893810000	      7.83244291742486180000	      0.08146992358970672800	     -0.33078526167196770000	     19.76495898226252400000	     -2.59473250009419720000	     -5.17339202462395150000	    -51.01386493190408800000	      0.76734112071041827000	      0.02242910912519231100	      0.35183050582697278000	    -19.01424890917318000000	      0.74651849061101394000	      1.46502747293690640000	      0.36603925045678953000	    -10.56670133066040800000	    -13.73251686221890600000	     -0.12144110767409197000	     -0.01368147329757959200	      0.06471544957300909300	    -85.15153865839361900000	     14.77614903004686300000	      6.58269205139023410000	     45.76897001481629000000	     15.01054117250891200000	      2.57767506132034140000	     -2.56045159036139360000	     28.35582692686093900000	    -14.88574481135570700000	    -48.50245645413154000000	    291.35029002485891000000	    -15.12177371287662100000	     -0.25594838686123406000	      1.35743182218606480000	     -8.13141279225093070000	      1.26888006947643170000	     19.35404135966216200000	      0.40947720635615115000	      0.04624419484031748500	      0.31447533434144437000	      0.08007160953880061700	      0.27448453184745580000	      0.05991780439846346200	      0.07656478436968310000	      0.09418460401342262900	      0.16470815069982689000	      0.18448398119885653000	      0.04827583363584241800	      0.52124749906514567000	      0.01999999999999999700	      0.08019704342511466100	      0.06393491565404393900	      0.12430226695808971000	      0.01999999999999999700	      0.07983756283910646600	      0.01999999999999999700	      0.34864609926511220000	      0.07618645203328831800	      0.07524841316528675700	      0.06130795069570342500	      0.08244636213199919800	      0.02338500914284502600	      0.08836704715740034700	      0.04025338912258468600	      0.11671843268574354000	      0.05531722019318556500	      0.10864265151779855000	      0.01999999999999999700	      0.04513563954317549600	      0.02038899096915989000	      0.02473836608556291200	      0.08497173317184093800	      0.01941770016735803300	      0.03679764783770606700	      0.12392517559264267000	      0.04420602549014406000	      0.08424097860786346200	      0.45162788965461248000	      0.08889450829790430900	      0.08185995468812105900	      0.04982241415602444600	      0.12978253331393119000	      0.03315469170030037300	      0.08865596422907735800	      0.07307678199122201500	      0.04486311167275552900	      0.05124616979215788900	      0.09566031279532097300	      0.08857674757246350400	      0.19423344635760179000	      0.06877855343594034600	      0.02292975312404847400	      0.09799039087609427700	      0.05938421669200177900	      0.16492781186389971000	      0.10692952342160436000	      0.48860131064088869000	      0.02634580392890396900	      0.09488378783784159900	      0.14398962166397689000	      0.11240418016175731000	      0.03382157008303400500	      0.07234043869797572600	      0.02795790720533199900	      0.33384049620906664000	      0.01999999999999999700	      0.09452122027165056600	      0.01999999999999999700	      0.10629166811330265000	      0.01999999999999999700	      0.12448937649299179000	      0.19419835827015156000	      0.09856485121199021200	      0.21501432872497123000	      0.09048827455792471400	      0.04529019858801474500	      0.04732964928394868500	      0.05383668494894251800	      0.02427582289240052100	      0.08664398927162550400	      0.02222551065932273900	      0.30325911250302268000	      0.13783591947112320000	      0.01999999999999999700	      0.11757369364818622000	      0.01999999999999999700	      0.07232570625382639400	      0.01999999999999999700	      0.04628976313934846800	      0.01999999999999999700	      0.03391403341590377300	      0.06104292606117141300	      0.07818800176240106600	      0.13975116528150228000	      0.13943659287668334000	      0.21642750730418600000	      0.14091677123646548000	      0.01999999999999999700	      0.08633676687161948000	      0.07402736815127122800	      0.08655352772983331000	      0.01999999999999999700	      0.11364064795127896000	      0.02206397987729034900	      0.11743463685611050000
      1.02404359423696210000	      4.65683422223508710000	      0.36069522506547541000	      0.27726199230091259000	      0.58992285339799622000	      1.04640600496462070000	      0.04943580520402476200	     -4.90855299970215860000	      1.82864818763038970000	     -3.83959584469193470000	     -9.38695538229667470000	      7.85441950273589920000	      0.08487113623138345400	     -0.33597655632644208000	     19.80440864506229900000	     -2.61662263909980150000	     -5.24352315984876680000	    -50.59486962820004400000	      0.74501984999183479000	      0.02199478120361322500	      0.35393199885057902000	    -19.02587256181627100000	      0.74880902669338711000	      1.49259696599253870000	      0.39207075732872909000	    -11.16926109821937100000	    -13.55911700426366200000	     -0.12115855864998794000	     -0.01580471659481042300	      0.06389982349985552600	    -85.24834645949042100000	     15.29984028320911300000	      6.74566153282658390000	     45.77838028091079500000	     15.60836901692038700000	      2.14102372227731320000	     -4.30973016993510340000	     26.81950071706630800000	    -15.72845293068945200000	    -49.55667628647771000000	    294.54418101232949000000	    -16.05019052741310400000	     -0.31919408323413495000	      1.45030343929270660000	     -8.11586314933872900000	      1.94312445479882050000	     19.20107424986328900000	      0.40643463023946241000	      0.04621780326790624100	      0.31172632237951881000	      0.08003105448707145700	      0.27155462844657718000	      0.05987892935632539000	      0.08033174309993736100	      0.09405166450341169400	      0.16314540171870723000	      0.18451122701528078000	      0.04797623922611479000	      0.52135377445362008000	      0.01999999999999999700	      0.08015021907196727400	      0.06305183237048858600	      0.12439213058213297000	      0.01999999999999999700	      0.07987755741923519000	      0.01999999999999999700	      0.34866563556482461000	      0.07514094128385820400	      0.07515642036288733300	      0.06048554628314840900	      0.08232852268922424800	      0.02332086767324970100	      0.08818631253079213500	      0.04031126590736652800	      0.11680092598272677000	      0.05538683031009927100	      0.10872133266910321000	      0.01999999999999999700	      0.04514860846602233200	      0.02038168084539654000	      0.02474409669176875700	      0.08452444549124831000	      0.01940625916936236000	      0.03646762179130273700	      0.12397526847491033000	      0.04372111757386773500	      0.08419507595182393300	      0.45964984699625955000	      0.08892382934339816700	      0.08049986783096647900	      0.04983433193621134000	      0.12709701016276634000	      0.03315896246135306700	      0.09025674549745932300	      0.07306715789955041400	      0.04440430038916684500	      0.05129094143117157700	      0.09651333023522250300	      0.08859071546052088600	      0.19700147758420702000	      0.06876866893170496800	      0.02287430766627265200	      0.09825832098155593000	      0.05916101149103054900	      0.16514572501986810000	      0.10668967325706753000	      0.48862622450397158000	      0.02622458031773617500	      0.09493219418907382400	      0.14265701954098092000	      0.11229260657910743000	      0.03355215641040354400	      0.07233838492416200200	      0.02780521936930198000	      0.33413137502492990000	      0.01999999999999999700	      0.09454032476345364300	      0.01999999999999999700	      0.10631457180601979000	      0.01999999999999999700	      0.12453743906620532000	      0.19395435264353617000	      0.09853947304074335600	      0.21603712866263444000	      0.09045812615235684900	      0.04482229943143106000	      0.04728926726639045400	      0.05420155595402195000	      0.02423171061630506300	      0.09630109341861756200	      0.02221264112504818500	      0.30487913372441405000	      0.13746480064758437000	      0.01999999999999999700	      0.11727028993036667000	      0.01999999999999999700	      0.07244672256253363600	      0.01999999999999999700	      0.04628907161628542700	      0.01999999999999999700	      0.03391534606045259300	      0.06018483215807286800	      0.07820887936573710200	      0.14128225646524847000	      0.13943573200305640000	      0.21543011424802133000	      0.14093100210457440000	      0.01999999999999999700	      0.08634856951300440300	      0.07286141839518925400	      0.08652769818671302000	      0.01999999999999999700	      0.11360008503277030000	      0.02202501227407886700	      0.11743861037093259000
